# xmcd CD database file
#
# Track frame offsets:
#	150
#	16705
#	31073
#	43563
#
# Disc length: 875 seconds
#
# Revision: 10
# Processed by: cddbd v1.5.2PL0 Copyright (c) Steve Scherf et al.
# Submitted via: CDex 1.70beta2
#
DISCID=1e036904
DTITLE=Akeboshi - STONED TOWN
DYEAR=2002
DGENRE=JPop
TTITLE0=Wind
TTITLE1=秋風のうた
TTITLE2=no wish
TTITLE3=廃墟のソファ
EXTD=YEAR: 2002
EXTT0=
EXTT1=
EXTT2=
EXTT3=
PLAYORDER=
